<?xml version="1.0" encoding="UTF-8" standalone="no"?>
<svg
   width="1344"
   height="768"
   viewBox="0 0 1344 768"
   version="1.1"
   id="svg3"
   sodipodi:docname="trace.svg"
   inkscape:version="1.4.2 (ebf0e940, 2025-05-08)"
   xmlns:inkscape="http://www.inkscape.org/namespaces/inkscape"
   xmlns:sodipodi="http://sodipodi.sourceforge.net/DTD/sodipodi-0.dtd"
   xmlns="http://www.w3.org/2000/svg"
   xmlns:svg="http://www.w3.org/2000/svg">
  <defs
     id="defs3" />
  <sodipodi:namedview
     id="namedview3"
     pagecolor="#ffffff"
     bordercolor="#000000"
     borderopacity="0.25"
     inkscape:showpageshadow="2"
     inkscape:pageopacity="0.0"
     inkscape:pagecheckerboard="0"
     inkscape:deskcolor="#d1d1d1"
     showgrid="false"
     showguides="true"
     inkscape:zoom="0.64843753"
     inkscape:cx="725.59033"
     inkscape:cy="151.90361"
     inkscape:window-width="1824"
     inkscape:window-height="1092"
     inkscape:window-x="1846"
     inkscape:window-y="95"
     inkscape:window-maximized="0"
     inkscape:current-layer="svg3">
    <inkscape:grid
       id="grid3"
       units="px"
       originx="0"
       originy="0"
       spacingx="1"
       spacingy="1"
       empcolor="#0099e5"
       empopacity="0.30196078"
       color="#0099e5"
       opacity="0.14901961"
       empspacing="5"
       enabled="true"
       visible="false" />
  </sodipodi:namedview>
  <path
     d="m 470.50916,63.17774 c -1.92251,2.30964 -5.3303,14.22005 -13.38725,46.77668 -4.9985,20.19932 -5.85923,62.92691 -1.78391,88.57963 3.51515,22.11601 15.9948,63.44508 23.69457,78.46455 2.56073,4.99686 4.65694,10.08233 4.65694,11.29976 0,1.21743 -3.14822,6.44737 -6.99712,11.62146 l -6.99713,9.40811 h -15.23947 c -11.74579,0 -15.49711,-0.66265 -16.3637,-2.88946 -1.43846,-3.70431 -11.72433,-3.78521 -14.81008,-0.11559 -4.1124,4.89091 -1.7039,13.09701 4.43248,15.10231 4.51642,1.47555 6.31595,1.05176 9.9931,-2.35974 3.88404,-3.60029 5.84167,-3.97977 14.60516,-2.83361 7.28793,0.95546 9.84085,2.04575 9.12064,3.89886 -1.79954,4.62894 -23.2808,34.19208 -33.80867,46.53012 -14.85498,17.41002 -14.60125,17.79336 11.73603,17.79336 h 22.0297 l 9.6125,-9.63157 9.61251,-9.63157 h 24.57482 24.57677 l 6.72583,6.8885 c 3.69862,3.78906 18.75853,15.12927 33.46515,25.20197 21.9478,15.0291 27.1316,19.49045 28.939,24.89375 1.6571,4.95641 3.3122,6.58415 6.6907,6.58415 6.1266,0 10.2664,-5.08933 7.5729,-9.3118 -1.1262,-1.76451 -3.7104,-3.51361 -5.7421,-3.8873 -2.0318,-0.37179 -6.638,-2.86829 -10.2351,-5.54394 -8.0687,-6.0024 -5.7304,-8.15409 8.9117,-8.19646 8.5547,-0.0251 10.5494,0.65879 12.5129,4.27641 2.348,4.33228 2.8203,42.44055 0.57,46.03313 -1.2941,2.06886 -9.7044,-4.70599 -44.8948,-36.17233 -14.04503,-12.55957 -27.65868,-24.7069 -30.25259,-26.99344 -2.59392,-2.28845 -6.26911,-6.37224 -8.16624,-9.07679 -3.91526,-5.58053 -7.7427,-5.01612 -10.79333,1.59114 -3.04086,6.58991 1.1379,11.68694 8.15649,9.94748 4.76819,-1.18083 8.9001,2.04189 44.70737,34.87206 l 39.4513,36.17233 v 9.47168 c 0,5.48229 -0.9544,9.78377 -2.268,10.21719 -1.2471,0.4103 -19.2542,-15.12157 -40.0134,-34.51379 -55.26061,-51.61943 -72.28596,-67.04343 -74.00743,-67.04343 -0.84316,0 -5.93144,2.69685 -11.30664,5.99469 l -9.7706,5.99469 -34.04874,0.0482 c -28.42959,0.0405 -34.80213,-0.47194 -38.612,-3.10521 -5.92755,-4.09921 -10.12972,-3.98941 -14.12502,0.36985 -4.19826,4.57885 -4.08896,8.5952 0.33961,12.55186 4.45786,3.98169 9.76865,4.07415 14.05475,0.24464 2.70516,-2.41367 8.46096,-2.84516 32.09502,-2.40789 l 28.80237,0.53551 -9.49735,6.58607 c -26.34898,18.27687 -41.69971,30.06014 -41.69971,32.0057 0,1.21166 9.5032,4.0472 21.59446,6.44546 47.45745,9.40811 79.44318,21.69222 113.53876,43.60212 15.83677,10.17865 27.22922,20.02211 54.39212,47.00399 19.547,19.41726 37.6361,35.69459 41.9632,37.7596 4.2081,2.01108 13.4184,3.9817 20.6283,4.41511 21.4423,1.29064 28.4121,-3.0089 67.2251,-41.47545 35.7565,-35.43648 54.4799,-49.29052 87.9236,-65.05742 22.3068,-10.51575 61.4595,-22.99056 81.8263,-26.06881 8.4942,-1.28485 16.5414,-2.63905 17.8822,-3.00698 5.3245,-1.46784 1.5692,-6.11026 -13.7463,-16.99586 -28.8863,-20.53451 -32.4874,-23.26987 -32.5479,-24.73196 -0.033,-0.79556 13.0203,-1.44472 29.0073,-1.44472 24.565,0 29.2493,0.46616 30.2389,3.01275 0.806,2.07079 3.14617,2.82398 7.49287,2.40789 4.8853,-0.46809 6.7512,-1.81844 8.2131,-5.9446 1.5711,-4.43631 1.1633,-6.05634 -2.4124,-9.58342 -4.1573,-4.10497 -4.5125,-4.13772 -10.6372,-1.00746 -5.07657,2.59282 -13.13347,3.34987 -40.51307,3.80447 l -34.1756,0.56826 -9.9111,-6.26052 c -5.4494,-3.44424 -10.9904,-6.26052 -12.3118,-6.26052 -1.3213,0 -18.8659,15.3874 -38.9868,34.19208 -20.1208,18.80468 -45.4354,42.2171 -56.2521,52.02589 -21.0304,19.07052 -22.0512,19.27085 -22.0512,4.36117 0,-6.66312 1.4111,-8.67034 15.1243,-21.515 8.3166,-7.79001 25.4922,-24.13286 38.1651,-36.3168 21.9672,-21.11818 23.4271,-22.1526 31.2323,-22.1526 7.7758,0 8.219,-0.30822 8.7888,-6.13339 1.1067,-11.26124 -13.2857,-13.01611 -16.4046,-1.99759 -0.6655,2.35203 -7.9223,10.14012 -16.1256,17.30408 -8.2014,7.16396 -24.7505,22.11601 -36.7735,33.22892 -12.0248,11.11097 -22.6815,20.20318 -23.6827,20.20318 -2.9531,0 -4.1729,-7.55885 -4.2003,-26.05726 -0.035,-23.10805 1.8854,-25.95322 17.5348,-25.95322 6.3159,0 11.9449,0.73392 12.505,1.63158 1.5517,2.47725 -8.9411,11.43846 -14.2538,12.17045 -6.2477,0.86108 -9.675,6.26438 -6.8235,10.75848 2.1919,3.45387 12.2806,5.84635 12.7296,3.0166 0.1366,-0.86492 0.4625,-3.65036 0.7221,-6.19117 0.4957,-4.82349 3.3336,-7.48566 19.5216,-18.31539 5.3675,-3.59066 18.8347,-13.98505 29.9266,-23.10036 l 20.1678,-16.57016 h 24.0244 24.0244 l 10.3073,9.14999 10.3093,9.15 22.5938,1.25788 c 12.4269,0.69347 23.3882,0.51817 24.3563,-0.38911 1.0207,-0.95546 -3.0819,-7.38357 -9.7589,-15.28917 -14.5311,-17.20583 -35.7605,-46.50507 -35.8483,-49.47738 -0.088,-2.92607 10.2819,-5.15674 15.9908,-3.43846 2.4378,0.73393 5.8983,2.60052 7.69,4.15121 4.2452,3.67347 11.2365,2.55236 14.5018,-2.32699 2.0845,-3.11678 2.1177,-4.80808 0.1737,-8.66842 -3.2185,-6.39536 -10.2956,-7.17937 -16.11,-1.78762 -4.13,3.82951 -5.9529,4.16084 -16.8868,3.08018 -10.6645,-1.05369 -12.9793,-2.03033 -17.804,-7.50492 -12.3353,-13.99852 -12.2143,-12.85044 -3.4079,-32.15403 4.3681,-9.57571 11.1193,-29.34354 15.0014,-43.93153 6.396,-24.02692 7.1571,-29.61707 8.0823,-59.43449 1.0716,-34.48295 -0.7182,-48.55081 -11.17,-87.84378 -4.1574,-15.62818 -5.8378,-17.89545 -12.0894,-16.31972 -6.8624,1.73175 -45.57,25.15766 -62.0098,37.52845 -18.9518,14.2605 -53.6251,48.4102 -63.5343,62.5763 l -7.8071,11.16107 -16.5901,-1.54106 c -21.6725,-2.01492 -66.5712,-1.97061 -89.0772,0.0887 l -17.8352,1.63351 -10.7367,-14.15456 C 572.26503,123.80848 522.09267,84.37489 473.73544,61.2649 c -0.64408,-0.30821 -2.09621,0.55285 -3.22628,1.91284 m 3.42536,17.87041 c -1.07543,2.79315 -1.95568,5.78858 -1.95568,6.65735 0,0.87069 5.75579,6.89428 12.79,13.3898 28.55449,26.36161 92.57079,106.03396 92.59819,115.24367 0,1.30219 -6.7981,7.08114 -15.11852,12.84466 -17.51718,12.13578 -60.99301,52.21853 -60.99301,56.23296 0,2.17096 4.12215,2.72189 20.3785,2.72189 11.48036,0 20.90548,-0.84181 21.5847,-1.92632 1.82296,-2.90874 9.93455,-2.30965 12.66508,0.93812 3.15206,3.74668 0.98175,12.05679 -3.39609,13.00261 -1.87761,0.40646 -6.47405,-0.83024 -10.2156,-2.74885 -5.3225,-2.72766 -11.33787,-3.48663 -27.63911,-3.48663 H 493.7958 l -5.05314,5.92727 c -2.77933,3.25934 -5.05315,6.72669 -5.05315,7.70526 0,1.03058 17.40204,1.77799 41.41865,1.77799 h 41.41861 l 11.31066,11.04549 c 7.0829,6.91932 14.0333,11.79674 18.5984,13.05463 5.91,1.62773 7.407,3.02046 7.9165,7.37007 0.3454,2.94919 -0.4197,6.61112 -1.702,8.13483 -5.4494,6.48204 -18.8698,0.53552 -16.3656,-7.24873 0.9465,-2.94533 -1.3019,-6.26244 -9.6516,-14.24509 l -10.88704,-10.40594 -43.468,0.0289 c -23.90732,0.0174 -44.38927,0.6665 -45.51349,1.44473 -3.0799,2.13051 -10.64109,13.27231 -10.64109,15.67828 0,1.4717 14.2109,2.11123 46.92072,2.11123 h 46.91875 l 13.09835,12.12038 c 7.2021,6.66696 18.0032,15.69175 23.9991,20.05485 25.1389,18.29036 32.903,31.64742 53.5236,92.07203 l 13.8049,40.45261 h 7.7271 7.727 l 5.4494,-15.37006 c 5.0551,-14.26436 5.301,-16.29856 3.4156,-28.29948 -1.1184,-7.11197 -2.0337,-17.61615 -2.0337,-23.34116 0,-7.96146 -0.9173,-11.22655 -3.9035,-13.8945 -3.4918,-3.11871 -3.9037,-5.93305 -3.9037,-26.66212 0,-21.10469 0.3767,-23.57038 4.2218,-27.60793 2.8554,-3.0012 4.2763,-7.05224 4.3915,-12.5249 0.1463,-7.01371 -0.4548,-8.24077 -4.5243,-9.2174 -8.0433,-1.9321 -9.5676,-6.83457 -4.7214,-15.18321 4.1749,-7.18901 4.2413,-8.53165 3.7904,-77.49177 l -0.4567,-70.17562 h -8.6698 -8.6697 v 80.32537 c 0,74.88161 -0.2323,80.38702 -3.4156,81.20762 -5.1703,1.33301 -4.8092,18.66214 0.4878,23.39316 3.4703,3.09945 3.9037,5.93305 3.9037,25.51789 0,19.2381 -0.5037,22.66501 -3.97,27.0127 l -3.968,4.98145 7.8715,7.91714 c 7.1689,7.20828 7.8736,8.81675 7.8736,17.98215 0,5.53815 1.0168,11.67347 2.2601,13.63831 3.2204,5.09124 0.6695,10.26532 -4.6921,9.51406 -4.2197,-0.59138 -4.372,-1.25789 -3.7123,-16.26001 l 0.6871,-15.6436 -7.8852,-6.25282 c -4.3369,-3.4404 -8.3517,-7.45483 -8.9216,-8.91883 -0.5699,-1.46593 1.6434,-5.67686 4.9185,-9.35804 l 5.9548,-6.69394 -1.3818,-19.23039 c -1.091,-15.20055 -2.1489,-19.91809 -5.0395,-22.49935 -2.951,-2.6352 -3.6576,-6.03514 -3.6576,-17.59303 v -14.32411 l -32.2043,-32.56628 -32.2044,-32.56626 v -40.59707 -40.59899 l -37.57165,-38.65343 c -20.66347,-21.25879 -43.67492,-45.25104 -51.1346,-53.31459 -7.4597,-8.06355 -15.58104,-16.23883 -18.05004,-18.169 -4.42077,-3.4558 -4.51446,-3.43268 -6.44282,1.56995 m 379.88421,7.8478 c -6.5874,7.23138 -30.727,32.48537 -53.6447,56.12124 l -41.6645,42.97415 -0.7281,41.79138 -0.728,41.79138 -16.2174,16.46999 c -8.9195,9.05752 -22.9059,23.4259 -31.078,31.92865 l -14.8609,15.4606 -1.3877,15.36042 c -1.0403,11.50974 -2.2973,16.08473 -5.0141,18.24991 -3.0663,2.44256 -3.6966,6.08138 -4.0851,23.54919 -0.4216,18.85477 -0.094,21.04498 3.7494,25.08254 3.5971,3.7775 4.2939,7.08883 4.7779,22.68235 l 0.568,18.25952 9.6008,-25.04208 c 9.6047,-25.04594 16.4183,-39.71482 21.0928,-45.40515 1.3682,-1.66626 11.7087,-10.31926 22.9803,-19.23039 11.2715,-8.91114 24.1474,-19.90076 28.6149,-24.42181 l 8.1214,-8.22151 h 47.9922 c 31.3163,0 47.9923,-0.68192 47.9923,-1.96484 0,-1.08067 -2.2074,-5.41487 -4.9048,-9.63158 l -4.9029,-7.66672 -20.9581,-0.16373 c -76.8122,-0.60487 -69.9498,-1.53528 -81.8752,11.10905 -7.3601,7.80542 -10.3209,12.49407 -10.3209,16.33706 0,4.22826 -1.1185,5.66915 -5.182,6.67468 -6.925,1.71635 -11.4081,-1.40814 -11.4081,-7.95182 0,-5.61136 2.4592,-7.73994 10.9591,-9.48903 3.0838,-0.63376 8.7733,-5.44762 14.3651,-12.15311 l 9.2593,-11.10521 43.8388,-0.96315 43.837,-0.96316 -4.6395,-6.7421 -4.6412,-6.74209 -24.7154,0.28702 c -19.7832,0.23116 -25.3399,0.90344 -27.8402,3.37104 -3.8781,3.82759 -7.5104,3.92968 -10.5629,0.30051 -5.7597,-6.84997 2.143,-17.71246 9.5617,-13.14131 4.8658,2.99927 39.4395,5.47266 43.6905,3.12448 2.6525,-1.46401 -0.5563,-5.45917 -18.7273,-23.31611 -12.06,-11.85068 -29.8329,-27.47695 -39.4942,-34.72374 -10.8265,-8.12133 -17.4625,-14.42617 -17.2947,-16.43531 0.4216,-5.07198 24.1299,-38.78441 42.256,-60.08751 9.0152,-10.59473 26.6612,-29.8232 39.2132,-42.73143 20.0974,-20.66743 22.6699,-24.05967 21.5574,-28.43048 -0.6949,-2.72958 -2.1431,-5.50155 -3.2185,-6.15649 -1.0756,-0.65688 -7.3466,4.72332 -13.9339,11.9547 M 489.76539,81.61835 c 0.41572,1.1789 23.81168,25.51788 51.98947,54.08512 l 51.23417,51.9392 v 40.84364 40.84556 l 28.7887,29.14898 c 15.8328,16.03079 30.0007,29.4495 31.4822,29.81742 4.245,1.05754 6.2339,-3.84684 4.9575,-12.22824 -1.015,-6.65927 -4.3896,-10.90679 -24.8442,-31.27179 l -23.6711,-23.56459 0.5933,-37.38013 c 0.4119,-25.85499 -0.072,-37.78466 -1.5673,-38.69773 -1.1906,-0.72428 -5.7363,-6.09293 -10.1043,-11.92773 -14.291,-19.0917 -47.15497,-50.92018 -69.90488,-67.70224 C 505.45962,88.37007 488.46941,77.94101 489.76539,81.61835 m 341.95724,13.27422 c -36.4456,24.4796 -62.7418,48.36589 -83.3781,75.73304 -4.3973,5.83095 -9.5324,11.73511 -11.41,13.12013 -3.0077,2.21526 -3.4176,6.23354 -3.4176,33.55832 0,25.98982 0.5172,31.60695 3.1814,34.51184 2.996,3.26703 1.6941,4.97374 -22.4454,29.39555 -25.3458,25.64309 -25.6269,26.02643 -25.6269,34.7873 0,11.40956 3.8822,13.2203 12.0464,5.61907 3.277,-3.05128 16.3189,-16.4777 28.9839,-29.83668 l 23.0271,-24.28697 -1.0833,-38.36447 -1.0812,-38.36448 10.4576,-12.4748 c 5.7499,-6.85961 19.303,-21.14131 30.1139,-31.73603 36.186,-35.45766 64.0886,-64.53152 61.9299,-64.53152 -1.1769,0 -10.7601,5.7905 -21.2977,12.8697 m -363.68443,6.87501 c -0.0215,1.32531 -1.31159,11.07632 -2.86715,21.67104 -5.21711,35.53857 -3.29265,65.66612 6.72972,105.36746 3.6791,14.57449 16.06703,44.95632 19.873,48.73767 4.35051,4.32458 7.52995,-5.20876 7.52995,-22.58219 0,-19.70233 -2.38311,-26.60239 -12.45429,-36.06637 l -7.06347,-6.63808 v -32.4372 c 0,-26.57736 -0.56797,-33.2925 -3.14237,-37.17209 -4.22755,-6.36646 -2.18598,-13.9677 4.1729,-15.5415 9.26899,-2.29617 14.12697,7.47217 7.81492,15.70909 -2.23869,2.9203 -2.87888,10.55235 -2.92767,34.86821 l -0.0625,31.12924 7.94178,9.91666 c 8.87669,11.08401 12.28059,13.11242 16.37346,9.76064 1.53605,-1.25981 4.81894,-2.0053 7.29379,-1.66049 3.55614,0.49892 4.49885,1.84156 4.49885,6.40885 0,4.92944 -0.71631,5.75197 -4.87944,5.59209 -2.6837,-0.10398 -6.33742,-0.81675 -8.1194,-1.58535 -2.3109,-0.99591 -3.61664,-0.22153 -4.55739,2.7084 -1.48141,4.60389 0.62651,23.19474 2.61342,23.05027 0.70459,-0.0521 8.5683,-6.80567 17.47622,-15.01177 10.47909,-9.65275 15.80744,-15.90942 15.09698,-17.72594 -0.60504,-1.54298 -8.55268,-9.2752 -17.65967,-17.18079 -15.84843,-13.75389 -16.56083,-14.72283 -16.56083,-22.47817 0,-4.45749 -1.46774,-10.62939 -3.26337,-13.71536 -3.64202,-6.26436 -2.6993,-10.81433 2.85155,-13.74617 5.43765,-2.87214 12.12249,2.31543 12.12249,9.41005 0,3.05513 -0.8783,6.091 -1.95178,6.74595 -1.07348,0.65494 -1.95178,4.88706 -1.95178,9.40426 0,7.76882 0.89782,9.0768 16.594,24.19643 15.78013,15.2044 16.80285,15.84779 20.87426,13.17985 2.35384,-1.54299 4.57302,-3.67156 4.93019,-4.72911 0.35717,-1.05754 -5.51377,-8.35057 -13.04958,-16.208 -10.90458,-11.37296 -13.70343,-15.50876 -13.71709,-20.28409 -0.0487,-16.19453 -3.79035,-26.1632 -15.02868,-40.02111 -12.65922,-15.6147 -41.47917,-45.48027 -43.88766,-45.48027 -0.88416,0 -1.62388,1.08452 -1.6434,2.40789 m 384.20527,19.22847 c -35.0655,36.91974 -34.8001,36.49017 -34.8001,56.16169 0,14.44158 -0.022,14.50129 -7.3797,20.33609 -4.0596,3.22081 -10.7933,9.88393 -14.9662,14.80951 -7.1942,8.49697 -7.3972,9.0922 -3.9562,11.57522 1.9946,1.43895 4.8774,2.61787 6.4057,2.61787 1.5282,0 9.6574,-6.60726 18.0656,-14.68237 16.7111,-16.05006 19.9159,-22.72473 14.6891,-30.59565 -4.4071,-6.64 -4.007,-15.74954 0.8042,-18.29035 8.3653,-4.41897 16.5569,5.94845 11.1426,14.10254 -1.5633,2.35396 -3.5034,8.14253 -4.3095,12.86008 -1.2686,7.40089 -3.7103,10.77387 -17.8139,24.59903 -8.9898,8.81288 -16.3441,17.25592 -16.3441,18.7623 0,1.5083 1.7917,3.68696 3.9816,4.84467 2.1898,1.1558 9.995,7.2102 17.3415,13.45146 7.3485,6.24126 13.9005,10.81625 14.5602,10.16323 0.6598,-0.65109 1.2004,-5.80591 1.2004,-11.45771 v -10.27304 h -8.783 c -8.4121,0 -8.783,-0.23886 -8.783,-5.64988 0,-6.85382 4.9712,-9.0267 12.7002,-5.55163 4.9205,2.21334 5.7207,1.95135 10.1493,-3.31133 12.1615,-14.45699 12.2669,-14.86923 12.2747,-48.20602 0,-24.22533 -0.6129,-31.74566 -2.8573,-34.67366 -3.8803,-5.06234 -3.6948,-9.25401 0.5796,-13.07196 4.4559,-3.97977 7.0205,-4.01829 10.93,-0.16181 3.8567,3.80833 3.962,11.1784 0.2029,14.25858 -2.3479,1.92246 -2.789,8.37175 -2.4397,35.78705 0.3728,29.51884 0.035,33.73555 -2.8944,35.9354 -1.823,1.37153 -5.9959,5.86178 -9.271,9.98215 -5.7031,7.17361 -5.953,8.26968 -5.953,26.11697 0,18.57353 2.6212,27.34596 7.3133,24.48539 3.1717,-1.93595 16.03,-33.52172 19.3324,-47.49713 5.7382,-24.27734 8.4161,-45.48605 8.2696,-65.49468 -0.1912,-25.90314 -4.0557,-62.10822 -6.7199,-62.97121 -1.132,-0.366 -11.3339,9.10184 -22.6719,21.0392 m -162.739,61.71332 c -0.529,1.36384 -0.7242,19.74087 -0.4333,40.83595 l 0.5308,38.35676 7.0889,-6.14494 c 6.7922,-5.88875 7.1455,-6.81915 8.4571,-22.37029 1.1106,-13.15865 0.7573,-17.50056 -1.8719,-22.96552 -5.2228,-10.86441 1.7977,-19.42687 9.6087,-11.71969 3.7728,3.72357 3.7904,6.46086 0.076,11.30746 -2.0747,2.70648 -2.8652,9.0402 -2.8652,22.9424 v 19.2015 l -10.7347,11.10713 c -10.3816,10.74306 -10.7349,11.46157 -10.7349,21.84633 0,6.99444 0.8061,10.73727 2.3149,10.73727 1.2725,0 9.5909,-7.18323 18.4872,-15.96144 15.4522,-15.25255 16.1216,-16.26965 15.0365,-22.87112 -0.6851,-4.1647 -0.2752,-7.43365 1.0305,-8.23114 1.4443,-0.88226 2.1665,-11.85069 2.1665,-32.95538 0,-36.36111 2.5685,-32.50656 -22.988,-34.49258 -10.6157,-0.82447 -14.4471,-0.47773 -15.1692,1.3773 m -67.7267,0.80906 c -3.0818,0.79556 -3.4156,4.04911 -3.4156,33.37339 0,21.56702 0.7221,32.9342 2.1489,33.80296 1.2686,0.77439 1.655,3.74283 0.9426,7.2545 -1.1085,5.47844 0.077,7.18516 15.2415,21.9176 9.0445,8.78785 17.4021,15.97685 18.5731,15.97685 1.2843,0 2.1294,-4.27256 2.1294,-10.76232 0,-10.53116 -0.2499,-11.01851 -11.7106,-22.79599 l -11.7108,-12.03755 v -19.46732 c 0,-10.90101 -0.8587,-19.99129 -1.9517,-20.6578 -3.0233,-1.84348 -2.3031,-9.83575 1.1399,-12.65588 6.0895,-4.98722 14.445,6.7132 8.7849,12.29952 -1.2375,1.22128 -2.0904,9.74714 -2.0533,20.48635 l 0.064,18.3963 8.7186,7.35851 8.7186,7.35853 v -40.58744 -40.58745 l -16.1021,0.22346 c -8.8572,0.12329 -17.6402,0.62027 -19.5179,1.10378 m -69.43637,68.62494 c -5.85727,6.15458 -5.49814,13.77315 0.85294,18.08616 2.80275,1.9032 23.00363,21.15478 44.89083,42.78152 l 39.7949,39.31991 v 14.22969 c 0,8.30049 -1.1224,16.40064 -2.6935,19.43458 -4.5672,8.82252 0.6695,17.19814 9.4017,15.03488 6.3725,-1.57765 7.7876,-8.62988 3.0213,-15.05414 -3.1014,-4.17625 -3.8743,-8.29664 -3.8743,-20.64046 v -15.42014 l -34.1639,-34.49259 c -40.5813,-40.96885 -43.26113,-44.10295 -40.2553,-47.06947 1.2121,-1.19624 2.2036,-5.01228 2.2036,-8.48157 0,-5.03731 -1.1614,-6.90006 -5.75781,-9.2463 -7.53585,-3.84686 -8.40634,-3.74861 -13.42046,1.51793 m 224.11477,-0.60486 c -4.4696,4.41126 -4.8248,7.45484 -1.6687,14.29132 2.9334,6.35491 0.4625,9.49673 -39.0025,49.61029 -17.0194,17.2983 -32.0208,33.46201 -33.3363,35.91806 -1.6356,3.05128 -1.9635,8.43725 -1.0345,16.98817 1.2356,11.39991 0.9857,12.77723 -2.7871,15.38739 -5.5001,3.80061 -5.5976,13.3012 -0.1678,16.16948 8.6483,4.56922 16.6116,-4.34769 11.8024,-13.21644 -1.1653,-2.14784 -2.1177,-10.98384 -2.1177,-19.63299 v -15.72836 l 30.7405,-31.12153 c 16.9082,-17.11723 34.0701,-34.80272 38.1377,-39.29874 4.0695,-4.49794 8.5449,-8.1772 9.9443,-8.1772 3.9836,0 9.0075,-6.56102 9.0075,-11.76207 0,-11.62916 -11.6072,-17.23473 -19.5179,-9.42738 m 4.2003,3.6311 c -3.6245,2.26728 -2.0221,8.69539 2.3733,9.52947 4.9381,0.94005 7.7408,-2.32312 6.1755,-7.18708 -1.376,-4.28027 -4.21,-5.05656 -8.5488,-2.34239 m -226.0548,3.26124 c -0.64994,1.67012 0.0761,4.28028 1.61412,5.79629 2.37144,2.34239 3.34731,2.36165 6.43886,0.12906 4.54378,-3.27859 2.74031,-8.96506 -2.84566,-8.96506 -2.21525,0 -4.55738,1.36767 -5.20732,3.03971 m -94.81342,85.75374 c -3.14822,1.77991 -24.89297,29.36665 -24.89297,31.58191 0,0.5413 5.84363,0.98243 12.98518,0.98243 12.9071,0 13.04958,-0.0597 23.30616,-9.63157 l 10.3171,-9.63158 h 46.38008 46.37997 l -7.24878,-7.3277 -7.25087,-7.32769 -48.28306,-0.28509 c -29.16931,-0.17337 -49.63369,0.4758 -51.69281,1.63929 m 319.52152,5.11436 -6.7082,7.22368 45.205,0.51818 45.2051,0.51817 10.2781,9.59498 10.28,9.59497 h 14.6656 14.6637 l -11.8745,-15.55307 c -6.5307,-8.55476 -14.0139,-16.35633 -16.6272,-17.33682 -2.6134,-0.9805 -25.8181,-1.78377 -51.566,-1.78377 h -46.8153 l -6.7063,7.22368 M 484.66486,400.0188 c -30.50042,21.51693 -45.86677,33.25974 -45.86677,35.05506 0,3.37106 17.04292,0.1387 27.37368,-5.19334 6.01928,-3.10522 11.4784,-4.67902 13.75612,-3.96627 2.07864,0.65108 10.8675,8.22728 19.53143,16.83598 8.66395,8.60869 19.16451,17.1596 23.3335,19.00115 11.07829,4.89477 36.73633,20.43243 46.12638,27.93157 4.47543,3.57332 8.64633,6.49746 9.27093,6.49746 0.6246,0 1.1359,-2.42138 1.1359,-5.38212 0,-4.46905 -5.0493,-9.98987 -29.76459,-32.54702 -38.39914,-35.04543 -40.54219,-36.74058 -47.41245,-37.51111 -4.90676,-0.55285 -5.8651,-1.57765 -6.38036,-6.8442 -0.51332,-5.23572 0.15029,-6.38187 4.28025,-7.40474 5.9412,-1.47171 9.0133,0.15218 9.0133,4.76184 0,1.99374 10.92215,13.14132 25.84153,26.37317 48.26942,42.80849 48.23042,42.76611 50.10212,54.57441 1.4697,9.2752 2.8866,11.63109 12.4563,20.70788 5.9392,5.63254 11.6423,10.24028 12.6768,10.24028 2.2796,0 4.3192,-9.28868 4.3192,-19.66574 0,-6.9405 -1.175,-8.6973 -13.0477,-19.50392 -7.1747,-6.53215 -25.4453,-23.58003 -40.60074,-37.88291 -29.95007,-28.26866 -60.53245,-55.90741 -61.73084,-55.78798 -0.41378,0.0405 -6.89954,4.41126 -14.41388,9.71055 m 345.04876,2.15362 c -7.1533,6.56681 -17.0117,15.89979 -21.9087,20.74062 -4.8969,4.8389 -19.0044,18.20945 -31.3495,29.70954 -12.3449,11.5001 -28.0372,26.221 -34.8723,32.71268 l -12.425,11.80253 0.9466,13.07389 c 0.5231,7.19093 1.536,13.65372 2.2524,14.36068 0.7163,0.70887 6.999,-4.33229 13.9591,-11.20345 11.5935,-11.44231 12.7587,-13.34165 13.8751,-22.64768 1.0091,-8.41607 2.4241,-11.25545 8.254,-16.55475 8.2971,-7.54537 34.4567,-30.50511 51.5426,-45.24141 6.6517,-5.73657 13.1745,-12.95061 14.4979,-16.03078 3.111,-7.24487 10.9689,-6.94244 11.7964,0.4546 0.4392,3.92391 -0.8255,5.42836 -6.8312,8.11749 -4.0538,1.81652 -21.8618,16.16756 -39.5742,31.89398 -27.3659,24.29468 -32.296,29.515 -32.8152,34.74301 -0.3377,3.38261 -0.2518,6.15072 0.1893,6.15072 0.4392,0 8.1272,-4.84082 17.0839,-10.75653 8.9568,-5.91765 23.2906,-14.23547 31.855,-18.48493 12.2025,-6.0544 18.6922,-11.00117 29.9948,-22.85957 7.9321,-8.32167 16.0925,-15.65323 18.1341,-16.29276 2.2503,-0.70502 8.1603,1.15194 15.013,4.71562 10.7504,5.59209 27.1316,8.23306 25.6151,4.12809 -0.8783,-2.379 -58.0204,-44.47089 -60.3704,-44.47089 -1.0227,0 -7.7115,5.37249 -14.8628,11.9393 m -360.58881,33.16535 c -4.08897,2.43678 -6.65751,4.88706 -5.70699,5.44762 1.89712,1.11725 31.20501,9.16347 33.37539,9.16347 1.81514,0 -13.26624,-15.27567 -17.15613,-17.37728 -2.07669,-1.12304 -5.49035,-0.22345 -10.51227,2.76619 m 389.20781,2.40597 c -14.4725,12.90438 -13.7717,14.29903 4.5515,9.06908 23.6302,-6.74402 22.906,-6.1565 14.0879,-11.4346 -4.2939,-2.56971 -8.4628,-4.67709 -9.2651,-4.68286 -0.8021,-0.006 -5.0199,3.16685 -9.3743,7.04838 m -229.1055,10.50996 c -1.6141,9.39657 -6.7551,64.30231 -7.2177,77.07377 -0.4333,11.96819 2.5842,17.4447 14.4373,26.19402 5.3576,3.95472 7.7174,4.48253 15.6065,3.4847 10.9299,-1.38116 15.1028,-2.76426 15.1028,-5.00071 0,-0.89381 -5.8046,-7.21404 -12.8973,-14.04476 l -12.8974,-12.41895 1.3663,-9.80686 c 1.3408,-9.62194 -0.1171,-22.28746 -6.1228,-53.19132 -3.441,-17.70668 -5.7792,-21.60169 -7.3777,-12.28989 m 82.2732,-4.69442 c -0.5172,0.86683 -2.3967,10.24221 -4.1806,20.83694 -1.782,10.59472 -4.1495,24.36017 -5.2601,30.58988 -1.1106,6.22969 -1.4404,15.48564 -0.7319,20.56726 1.0852,7.79193 0.5953,10.16515 -3.1229,15.12926 -2.426,3.23813 -7.77,8.08089 -11.8745,10.76231 -12.6963,8.29086 -8.9021,12.44593 11.4139,12.49794 9.4584,0.025 10.5475,-0.48929 17.2928,-8.15988 l 7.2,-8.18683 -1.2471,-21.18945 c -1.6921,-28.72135 -6.0836,-71.98252 -7.4441,-73.32709 -0.609,-0.60101 -1.5302,-0.38526 -2.0455,0.47966 m -67.1352,24.68957 c 0.6148,3.17841 2.1937,12.49793 3.5093,20.70788 1.9713,12.31301 3.0154,14.92894 5.9568,14.92894 4.698,0 4.5184,-2.57549 -1.5028,-21.57087 -5.1938,-16.38716 -10.0869,-25.03053 -7.9633,-14.06595 m 50.5041,7.12158 c -5.6464,14.89619 -8.5429,26.40014 -7.1923,28.55954 1.4307,2.28268 6.804,2.51577 6.804,0.29473 0,-0.87262 1.3955,-9.60845 3.1033,-19.41147 1.7059,-9.80302 2.67,-18.25183 2.1411,-18.77195 -0.527,-0.52202 -2.713,3.67735 -4.8561,9.32915 m -33.5686,85.52835 c -1.6102,0.59523 -4.245,1.5083 -5.8552,2.03034 -2.4164,0.78209 -2.266,1.42933 0.8607,3.69853 4.9555,3.60026 28.2949,3.71006 33.2172,0.15795 2.715,-1.95906 2.996,-2.96267 1.1458,-4.09149 -3.0819,-1.88008 -25.4395,-3.24583 -29.3685,-1.79533"
     style="fill:#e42203;fill-rule:evenodd;stroke:none;stroke-width:1.93901"
     id="path1-9" />
  <g
     id="g130"
     transform="translate(-68.658143,-3.8668066)">
    <path
       d="m 519.67959,592.78304 c -17.00368,7.60759 -23.92486,18.47628 -24.15763,37.92874 -0.28501,23.89399 12.24865,35.75309 45.08743,42.6624 26.15276,5.50085 35.75074,14.55017 28.93406,27.28571 -8.19664,15.31733 -44.73116,11.01831 -48.9423,-5.75736 -1.40371,-5.60061 -2.48915,-6.01151 -15.81374,-6.01151 H 490.4819 l 1.25882,9.38897 c 2.77893,20.72791 20.05814,33.37795 48.05638,35.19019 26.77503,1.73148 46.06123,-5.98301 57.54034,-23.01756 10.41502,-15.45271 5.15881,-38.31589 -11.31522,-49.21782 -4.86667,-3.22069 -18.05112,-8.02324 -29.3022,-10.67629 -24.5519,-5.78822 -30.81754,-10.10387 -30.5064,-21.01769 0.2969,-10.45777 4.90706,-14.5549 18.04163,-16.03462 12.51702,-1.41084 21.69935,3.15421 25.2787,12.56691 2.007,5.27996 3.52234,5.81437 16.51916,5.81437 12.82105,0 14.31026,-0.50354 14.31026,-4.84531 0,-8.75717 -8.96143,-22.63752 -19.20544,-29.73922 -9.08969,-6.30602 -12.15126,-7.03995 -31.65122,-7.59335 -15.49785,-0.44178 -23.91061,0.42514 -29.82712,3.07344 m 104.99342,68.08599 0.62941,71.96223 14.25089,-0.12353 14.25088,-0.1211 1.18759,-37.48459 c 1.33482,-42.09712 2.24688,-44.21339 19.08668,-44.21339 15.63798,0 17.55234,4.65055 18.91568,45.9615 l 1.18758,35.98111 13.6571,0.71255 13.6571,0.71254 v -41.91898 c 0,-33.87674 -0.74579,-43.48896 -3.88337,-50.10138 -9.06119,-19.09381 -39.10919,-22.12688 -54.74716,-5.52695 l -6.68604,7.09692 -1.18757,-26.74179 -1.18759,-26.74179 -14.8803,-0.70779 -14.87791,-0.70779 0.62703,71.96223 M 956.6356,613.91711 c 0,12.31277 -0.2993,12.9398 -6.53171,13.65709 -6.04704,0.69356 -6.5316,1.54385 -6.5316,11.43871 0,9.89488 0.48456,10.74518 6.5316,11.43871 l 6.53171,0.75294 v 28.93642 c 0,33.61547 3.13526,42.98068 16.62131,49.71659 8.71915,4.35603 25.10768,5.4866 30.44709,2.10201 1.9642,-1.24458 2.8501,-5.44383 2.3751,-11.24632 -0.6626,-8.11113 -1.5676,-9.35096 -7.28937,-10.00888 -9.70007,-1.11632 -11.51698,-7.10169 -10.76883,-35.46571 l 0.67453,-25.53759 h 8.3129 c 8.26797,0 8.31307,-0.057 8.31307,-10.68817 0,-10.6359 -0.043,-10.6929 -8.90687,-11.42445 l -8.90671,-0.73866 V 613.93137 601.01055 H 972.06931 956.6308 v 12.90656 m 308.7694,0.15675 c 0,12.26764 -0.3539,13.06331 -5.7977,13.06331 -7.2632,0 -8.0564,1.4536 -6.6979,12.2724 0.8479,6.75492 2.3727,9.02793 6.7953,10.13951 5.5698,1.39658 5.7027,2.01412 5.7574,26.91755 0.03,14.01812 1.0426,29.76298 2.2516,34.9883 3.7788,16.36952 19.8349,25.17657 39.2565,21.53309 8.0232,-1.50585 8.3129,-1.92862 8.3129,-12.13938 0,-10.073 -0.3277,-10.58128 -6.8356,-10.58128 -11.0398,0 -12.3935,-3.90237 -11.6526,-33.59172 l 0.6747,-26.97456 8.9068,-0.73629 c 7.5577,-0.62704 8.9519,-1.6151 9.2036,-6.53165 0.1639,-3.18746 0.4655,-7.13021 0.6723,-8.76431 0.5486,-4.31801 -3.4773,-6.45327 -12.2511,-6.49601 l -7.7192,-0.0357 v -13.06325 -13.06331 h -15.4384 -15.4386 v 13.06331 m -485.56585,13.22721 c -22.82992,5.6671 -34.5917,23.66361 -34.5917,52.93493 0,37.04043 20.19356,56.05349 56.44306,53.14393 18.50002,-1.48446 31.93621,-9.74286 39.53911,-24.30014 6.69796,-12.82579 6.9711,-43.58158 0.49402,-55.81597 -5.66946,-10.71192 -12.91602,-18.61167 -20.86093,-22.74442 -8.50066,-4.42491 -29.52072,-6.07324 -41.02356,-3.21833 m 132.47388,1.99513 c -4.12799,2.55091 -8.21327,6.86656 -9.07786,9.58848 -2.15663,6.80005 -5.97822,3.75748 -5.97822,-4.76218 0,-6.95443 -0.0648,-6.98532 -14.25083,-6.98532 h -14.2509 v 52.25327 52.25325 h 13.99676 c 10.57177,0 14.35051,-0.91918 15.43838,-3.75749 0.79337,-2.06638 1.44169,-17.3647 1.44169,-33.99549 0,-30.029 0.0449,-30.28075 6.66235,-36.62003 5.31789,-5.09468 8.93532,-6.38203 17.93705,-6.38203 h 11.27732 l -0.71964,-12.46952 c -0.68654,-11.94462 -1.01665,-12.49565 -7.84286,-13.11557 -3.95704,-0.35864 -10.46493,1.41797 -14.63324,3.99263 m 140.51617,-1.1187 c -13.2676,4.82631 -26.1861,19.97974 -29.7701,34.92181 -6.8262,28.45427 2.5367,54.22224 23.8323,65.58259 8.8831,4.73842 13.2937,5.55071 26.1266,4.81203 25.1314,-1.45121 40.6267,-12.00873 44.2559,-30.15249 l 1.4655,-7.32496 -13.9539,0.0143 c -12.8542,0.0142 -14.2579,0.55103 -17.8088,6.79054 -4.5436,7.99237 -13.1155,10.27015 -23.001,6.11363 -9.1443,-3.84535 -13.2081,-15.83985 -11.8306,-34.90517 0.8669,-11.99449 2.1068,-15.27458 7.5245,-19.93699 8.5316,-7.33684 19.0321,-7.23709 26.5185,0.25176 3.2064,3.20645 5.831,6.94731 5.831,8.31302 0,2.81218 7.667,3.20408 18.8777,0.96193 6.781,-1.3562 7.4317,-2.18512 6.0494,-7.71923 -2.1329,-8.55053 -11.9753,-20.9583 -19.8562,-25.03406 -10.2844,-5.32032 -33.2045,-6.71216 -44.2608,-2.68866 m 84.3318,33.99311 c 0,19.26721 1.1164,39.00943 2.4655,43.86661 7.6384,27.49946 37.9528,36.43477 58.3505,17.19844 4.793,-4.5199 9.0992,-8.218 9.5694,-8.218 0.4703,0 0.8551,3.74086 0.8551,8.31301 v 8.31302 h 14.2509 14.2508 V 679.3905 627.13724 h -15.4383 -15.4385 v 35.17832 c 0,32.1215 -0.4204,35.63197 -4.8429,40.37752 -7.6433,8.20376 -19.9323,7.76198 -27.8154,-1.00232 -5.0211,-5.57923 -5.344,-8.01137 -5.344,-40.24688 v -34.30664 h -15.4389 -15.4384 l 0.023,35.03343 m -355.04888,-7.98524 c -10.11813,10.11812 -11.05632,36.28276 -1.74812,48.74991 3.68624,4.94031 6.58155,6.1445 14.76155,6.1445 15.16533,0 20.18877,-7.77622 20.18877,-31.25694 0,-16.60703 -0.46316,-18.24113 -6.66467,-23.57809 -8.63367,-7.42472 -19.14845,-7.44848 -26.53753,-0.0593"
       stroke="none"
       fill="#000000"
       fill-rule="evenodd"
       id="path3"
       style="stroke-width:2.37514" />
    <path
       d="m 166.54011,596.01295 c -0.83669,0.82182 -1.52063,31.1164 -1.52063,67.31854 v 65.82087 l 5.34611,1.32252 c 2.94093,0.72525 9.35397,0.99695 14.24869,0.604 l 8.90258,-0.71852 1.13988,-25.82178 1.1399,-25.82179 25.74794,-0.63545 c 28.49506,-0.70504 29.47082,-1.25291 26.83537,-15.10013 l -1.49553,-7.84084 h -26.20845 -26.21073 l 0.6657,-17.40165 0.6657,-17.40163 29.06732,-0.62871 29.06729,-0.6287 v -12.2822 -12.28218 h -42.93527 c -23.61632,0 -43.62147,0.6736 -44.45587,1.49765 m 130.91915,35.08397 c -11.09346,3.48706 -24.31851,16.76394 -27.30504,27.41151 -6.23978,22.24716 -1.09657,49.65418 11.4605,61.07864 12.01449,10.93047 39.04367,15.82314 54.80841,9.92005 26.44329,-9.90209 38.10212,-46.33103 23.94918,-74.82256 -3.29885,-6.64182 -8.93449,-14.21546 -12.52515,-16.82906 -12.49552,-9.09827 -33.8412,-11.96111 -50.3879,-6.75858 m 83.09603,-0.80834 c -0.97803,1.55829 11.90734,25.45355 23.91042,44.34612 2.85431,4.49075 1.84436,6.94269 -12.15584,29.50645 -8.39873,13.53286 -15.27002,25.22226 -15.27002,25.97448 0,0.75219 6.61822,1.36742 14.70693,1.36742 h 14.70691 l 8.66092,-16.27895 c 4.76476,-8.9523 9.66859,-16.14872 10.89739,-15.98931 1.23109,0.15718 5.93201,7.2301 10.446,15.71762 l 8.20952,15.42795 15.20163,0.66464 c 9.17155,0.39967 15.20162,-0.23801 15.20162,-1.60769 0,-1.24843 -6.66834,-12.29342 -14.81861,-24.54418 -8.15025,-12.253 -14.81636,-23.14979 -14.81408,-24.21634 0,-1.06655 6.5544,-12.67962 14.5633,-25.80608 l 14.55873,-23.8683 -10.3206,-1.39214 c -18.26111,-2.46542 -18.17675,-2.51033 -26.78524,14.32323 -4.42051,8.64469 -8.90714,15.71761 -9.96952,15.71761 -1.06465,0 -5.25263,-6.12987 -9.3061,-13.62492 -4.05575,-7.49281 -8.55832,-13.9752 -10.00827,-14.40407 -6.85532,-2.03431 -26.5755,-2.97063 -27.61509,-1.31354 m -75.28091,25.723 c -9.7119,9.56528 -10.61242,34.30031 -1.67792,46.08627 3.56787,4.70856 6.29904,5.80878 14.4151,5.80878 9.56827,0 10.2408,-0.44457 15.14236,-10.01886 8.68372,-16.95929 5.64476,-37.80085 -6.40393,-43.93744 -9.19439,-4.68386 -15.21303,-4.1068 -21.47561,2.06125"
       style="fill:#e42203;fill-rule:evenodd;stroke:none;stroke-width:2.26252"
       id="path1-8" />
  </g>
</svg>
